<?xml version="1.0" encoding="UTF-8" standalone="no"?>
<!-- Created with Inkscape (http://www.inkscape.org/) -->
<svg
   xmlns:dc="http://purl.org/dc/elements/1.1/"
   xmlns:cc="http://creativecommons.org/ns#"
   xmlns:rdf="http://www.w3.org/1999/02/22-rdf-syntax-ns#"
   xmlns:svg="http://www.w3.org/2000/svg"
   xmlns="http://www.w3.org/2000/svg"
   xmlns:sodipodi="http://sodipodi.sourceforge.net/DTD/sodipodi-0.dtd"
   xmlns:inkscape="http://www.inkscape.org/namespaces/inkscape"
   width="300.00006"
   height="360.289"
   id="svg5833"
   sodipodi:version="0.32"
   inkscape:version="0.46"
   version="1.0"
   sodipodi:docname="Death Note, book.svg"
   inkscape:output_extension="org.inkscape.output.svg.inkscape">
  <defs
     id="defs5835">
    <inkscape:perspective
       sodipodi:type="inkscape:persp3d"
       inkscape:vp_x="0 : 526.18109 : 1"
       inkscape:vp_y="0 : 1000 : 0"
       inkscape:vp_z="744.09448 : 526.18109 : 1"
       inkscape:persp3d-origin="372.04724 : 350.78739 : 1"
       id="perspective5841" />
  </defs>
  <sodipodi:namedview
     id="base"
     pagecolor="#ffffff"
     bordercolor="#666666"
     borderopacity="1.0"
     inkscape:pageopacity="0.0"
     inkscape:pageshadow="2"
     inkscape:zoom="1.0578468"
     inkscape:cx="131.34246"
     inkscape:cy="217.81463"
     inkscape:document-units="px"
     inkscape:current-layer="layer1"
     showgrid="false"
     inkscape:window-width="1280"
     inkscape:window-height="744"
     inkscape:window-x="-4"
     inkscape:window-y="-4" />
  <metadata
     id="metadata5838">
    <rdf:RDF>
      <cc:Work
         rdf:about="">
        <dc:format>image/svg+xml</dc:format>
        <dc:type
           rdf:resource="http://purl.org/dc/dcmitype/StillImage" />
      </cc:Work>
    </rdf:RDF>
  </metadata>
  <g
     inkscape:label="Capa 1"
     inkscape:groupmode="layer"
     id="layer1"
     transform="translate(127.35525,147.53923)">
    <g
       id="g5900">
      <path
         id="rect3286"
         d="M -127.35525,-70.574875 L 66.841707,-141.87874 L 170.87085,141.4459 L -23.326105,212.74977 L -127.35525,-70.574875 z"
         style="fill:#000000;fill-opacity:1;fill-rule:nonzero;stroke:none;stroke-width:1.29999995;stroke-linecap:butt;stroke-linejoin:miter;marker:none;marker-start:none;marker-mid:none;marker-end:none;stroke-miterlimit:4;stroke-dashoffset:0;stroke-opacity:1;visibility:visible;display:inline;overflow:visible;enable-background:accumulate" />
      <path
         id="path3289"
         d="M -126.3532,-73.919619 L 67.843752,-145.22348 L 171.87289,138.10116 L -22.32406,209.40502 L -126.3532,-73.919619 z"
         style="fill:#cccccc;fill-opacity:1;fill-rule:nonzero;stroke:none;stroke-width:1.29999994999999990;stroke-linecap:butt;stroke-linejoin:miter;marker:none;marker-start:none;marker-mid:none;marker-end:none;stroke-miterlimit:4;stroke-dashoffset:0;stroke-opacity:1;visibility:visible;display:inline;overflow:visible;enable-background:accumulate" />
      <path
         id="path3291"
         d="M -125.58128,-76.235369 L 68.615667,-147.53923 L 172.64481,135.78541 L -21.552144,207.08927 L -125.58128,-76.235369 z"
         style="fill:#000000;fill-opacity:1;fill-rule:nonzero;stroke:none;stroke-width:1.29999995;stroke-linecap:butt;stroke-linejoin:miter;marker:none;marker-start:none;marker-mid:none;marker-end:none;stroke-miterlimit:4;stroke-dashoffset:0;stroke-opacity:1;visibility:visible;display:inline;overflow:visible;enable-background:accumulate" />
      <g
         style="fill:#f2f2f2"
         transform="matrix(0.3311987,-0.1117757,0.1117757,0.3311987,57.76134,-87.303584)"
         id="g2477">
        <path
           style="fill:#f2f2f2"
           id="path5"
           d="M -54.16486,64.40425 L -54.28686,60.56225 C -52.34386,54.07025 -51.44986,47.19125 -51.61386,39.91225 C -51.77786,32.63525 -51.82986,25.35525 -51.74686,18.05925 L -54.02886,14.95525 L -51.34186,14.14125 L -51.38286,12.86025 L -49.27986,12.80225 C -46.42886,13.95425 -43.49386,14.55225 -40.47486,14.61525 C -37.46986,14.66925 -34.34186,14.63625 -31.09286,14.50625 L -26.23586,13.64325 L -25.89686,20.04225 L -27.34586,20.14425 C -30.16486,18.55425 -33.34886,17.51425 -36.87586,17.04825 C -40.41286,16.57225 -44.20286,16.71725 -48.27386,17.47525 C -49.20486,18.64625 -49.50286,20.18625 -49.17286,22.11425 C -48.85386,24.03425 -48.62986,26.08025 -48.51686,28.23325 L -47.41886,35.82925 L -26.48586,36.85225 L -26.31586,40.07725 L -28.82286,40.14725 C -30.90286,38.08825 -37.27986,37.53425 -47.92986,38.46925 C -47.73286,41.88125 -48.01086,45.11725 -48.78186,48.17225 C -49.53986,51.22325 -50.03086,54.47725 -50.28286,57.94325 C -47.05486,58.18725 -43.82386,58.22425 -40.57686,58.07425 C -37.32786,57.93325 -34.35986,58.16425 -31.65086,58.77725 L -28.74486,58.82425 L -28.80586,56.92825 L -27.42486,56.84025 L -25.18586,61.11125 C -26.03386,62.02125 -27.04086,62.50725 -28.20086,62.56025 C -29.36986,62.61325 -30.62886,62.65625 -31.98786,62.69325 L -50.79786,62.29125 L -52.05086,64.28325 L -54.16486,64.40425 L -54.16486,64.40425 z M -176.04186,56.06425 C -173.84686,53.51725 -172.73386,50.44525 -172.73386,46.83725 C -172.73386,43.24125 -172.53086,39.74525 -172.09086,36.34125 L -172.73386,30.64825 L -172.09086,14.75325 L -176.13486,-1.37175 L -171.72886,0.41925 L -166.58886,3.35025 C -163.53286,9.69925 -159.62886,15.73725 -154.87886,21.45925 C -150.13186,27.17925 -146.00786,33.19525 -142.52786,39.49025 L -140.41186,40.17025 L -140.41186,31.25025 L -143.07686,2.74925 L -135.72286,-3.47075 L -137.55886,13.62725 L -136.82286,24.12125 L -136.82286,40.92425 L -132.87286,54.79725 L -135.63286,55.38725 L -142.52886,50.97125 C -144.72386,43.31925 -148.05986,36.21525 -152.53086,29.67425 C -157.01086,23.12425 -161.68286,16.67425 -166.58986,10.32525 L -168.06286,10.32525 L -168.70686,12.87225 L -168.06286,26.22125 L -166.95086,52.91625 L -176.04186,56.06425 L -176.04186,56.06425 z M -112.68586,36.84025 L -118.09186,34.07825 L -118.09186,29.64225 L -109.83886,26.76325 L -108.38386,35.43325 L -112.68586,36.84025 L -112.68586,36.84025 z M -109.49586,47.07625 C -107.33086,45.29525 -105.54486,43.17425 -104.16286,40.70725 C -102.77686,38.23025 -101.45286,35.90425 -100.21086,33.71325 L -100.21086,27.81725 C -101.45286,25.61625 -102.99186,23.40725 -104.82286,21.18025 C -106.64486,18.95225 -108.64186,17.01125 -110.81886,15.33625 L -115.79786,15.33625 C -117.00186,16.17325 -118.25786,17.13525 -119.58086,18.23025 C -120.89386,19.32625 -121.75686,20.48525 -122.17086,21.70625 L -125.50686,36.52925 L -123.62486,45.03725 C -121.92286,46.36525 -119.98186,47.33625 -117.80786,47.95925 C -115.64386,48.59225 -113.49286,48.68925 -111.36386,48.27225 L -109.49586,47.07625 L -109.49586,47.07625 z M -116.76786,51.14625 L -127.23186,46.34325 C -129.07686,43.48425 -129.91686,40.22425 -129.72786,36.55425 C -129.53886,32.88425 -129.45586,29.20425 -129.45586,25.51725 L -119.74786,12.46525 L -113.78686,10.11425 C -110.05086,12.10025 -106.79986,14.45925 -104.01986,17.18725 C -101.25286,19.92025 -98.68586,22.90625 -96.33186,26.13925 L -95.56386,33.18625 C -96.58186,35.44825 -97.44486,37.96125 -98.12886,40.73125 C -98.82786,43.49525 -100.09086,45.85425 -101.94786,47.80525 C -104.34886,49.15925 -106.71386,50.05925 -109.04486,50.48725 C -111.37486,50.92425 -113.95386,51.14625 -116.76786,51.14625 L -116.76786,51.14625 z M -78.55086,51.22425 L -84.68886,46.03525 L -81.99886,45.77125 L -81.25286,42.35325 L -77.62386,8.42025 L -79.93686,8.04525 C -81.94786,7.98125 -83.98786,7.85925 -86.07086,7.67025 C -88.14286,7.48325 -90.26686,8.07925 -92.43486,9.46025 L -93.90486,2.16625 L -88.56386,3.19825 L -85.15286,4.38825 L -77.24386,4.34125 L -76.49986,1.04225 L -78.59486,-5.38375 L -80.84786,-7.01175 L -80.57686,-8.73075 L -70.31186,-8.77075 L -70.58586,-6.98675 L -73.48586,3.19325 L -73.32486,4.34125 L -68.17286,5.16025 L -65.08686,5.31225 L -64.89686,4.27425 L -62.78586,4.57525 L -58.76686,12.27025 L -63.62586,11.41725 C -64.18386,10.65125 -65.01086,10.16425 -66.11986,9.95525 C -67.23386,9.74725 -68.31886,9.54025 -69.37886,9.33625 L -73.56786,9.12525 L -73.90886,10.96525 C -74.08586,17.40325 -74.56286,24.18225 -75.33086,31.28025 C -76.09686,38.38725 -76.32486,45.19025 -76.01486,51.68225 L -78.55086,51.22425 L -78.55086,51.22425 z"
           sodipodi:nodetypes="ccscccccccccccccccccccccccccccsccccccsccccccscccccccccccccccccccccccccccscccccccccccccccscccccccccccccccccscccccccccccccccccccsccccccc" />
      </g>
      <g
         style="fill:#f2f2f2"
         transform="matrix(0.3311987,-0.1117757,0.1117757,0.3311987,60.560405,-88.752694)"
         id="g2472">
        <path
           style="fill:#f2f2f2;stroke:#000000;stroke-width:0.1728;stroke-miterlimit:10"
           id="path7"
           d="M -381.65286,31.11725 C -383.83586,29.68525 -385.07586,27.80125 -385.41886,25.40625 C -385.76186,23.03225 -385.91086,20.25025 -385.91086,17.08425 L -374.01586,12.31325 L -370.63686,23.84425 L -372.13386,28.48625 L -381.65286,31.11725 L -381.65286,31.11725 z M -375.02286,51.05525 L -366.23086,44.14725 C -363.72886,41.81525 -362.14486,38.24325 -361.48286,33.42825 C -360.81886,28.63725 -360.73286,23.63125 -361.22486,18.45425 L -361.84586,13.68325 L -361.22486,11.18025 C -362.31586,8.50625 -363.38586,5.70325 -364.43386,2.79525 C -365.46086,-0.13575 -367.40686,-2.68175 -370.25186,-4.86375 C -374.01686,-8.62875 -378.31686,-10.89575 -383.15186,-11.68675 C -388.00786,-12.47875 -392.47886,-13.01375 -396.56486,-13.24875 L -396.56486,-7.98575 C -396.15886,1.96125 -395.40986,11.78025 -394.31786,21.47125 C -393.22686,31.16125 -392.47786,41.15225 -392.07186,51.42125 L -392.69186,56.42525 L -392.43586,57.43125 L -392.17886,57.43125 L -375.02286,51.05525 L -375.02286,51.05525 z M -395.32486,76.87525 L -402.08386,71.84825 L -402.08386,68.72525 C -400.41486,66.13725 -399.60186,63.24825 -399.64486,60.06125 C -399.68686,56.89725 -399.45286,53.79325 -398.95986,50.79925 C -400.37186,38.58425 -401.37686,26.24025 -401.95486,13.74725 C -402.55386,1.25425 -404.92886,-10.91775 -409.09986,-22.79075 L -406.10486,-29.29375 L -400.71386,-29.29375 L -396.81986,-23.15375 C -391.72786,-21.14275 -386.25186,-19.47475 -380.41086,-18.14775 C -374.55086,-16.79975 -368.75186,-14.42575 -362.97586,-11.00275 C -359.29686,-4.30675 -356.60186,2.64525 -354.89086,9.87625 C -353.17886,17.10725 -351.87386,24.46625 -350.95386,31.99725 L -357.84186,46.77825 C -360.60086,49.13225 -363.31886,51.52625 -365.99286,53.98725 C -368.66586,56.44625 -371.57586,58.43625 -374.76386,59.95625 L -390.55086,66.33125 L -391.94186,68.96225 L -391.06586,75.48725 L -395.32486,76.87525 L -395.32486,76.87525 z M -343.45886,57.21125 L -343.45886,53.04725 C -341.30286,46.07025 -340.18486,38.64325 -340.11786,30.75425 C -340.05086,22.86425 -339.86986,14.97425 -339.55286,7.07325 L -341.74286,3.64225 L -339.02286,2.84125 L -339.02286,1.45225 L -336.91186,1.45225 C -334.08986,2.78425 -331.16686,3.51825 -328.14186,3.67525 C -325.12786,3.82225 -321.99086,3.87825 -318.72886,3.83325 L -313.82986,3.04325 L -313.69386,9.98425 L -315.15086,10.05225 C -317.92686,8.24625 -321.08786,7.02725 -324.60886,6.41825 C -328.14186,5.79625 -331.94586,5.84225 -336.05386,6.54225 C -337.02486,7.78425 -337.37486,9.44225 -337.10386,11.54225 C -336.84386,13.63025 -336.68686,15.85425 -336.64186,18.18925 L -335.78386,26.45225 L -314.82486,28.17925 L -314.75586,31.67925 L -317.27286,31.67925 C -319.29486,29.38825 -325.67086,28.59725 -336.38386,29.29625 C -336.29286,32.99925 -336.67686,36.49725 -337.54586,39.78225 C -338.40386,43.06525 -339.00186,46.57725 -339.36286,50.32525 C -336.13486,50.68425 -332.89586,50.82125 -329.63386,50.75325 C -326.37286,50.69625 -323.40286,51.03625 -320.70586,51.78025 L -317.79386,51.91525 L -317.79386,49.86225 L -316.40486,49.80525 L -314.29486,54.50025 C -315.17586,55.45925 -316.20286,55.95725 -317.36486,55.97925 C -318.53886,56.00225 -319.80286,56.01225 -321.16786,56.01225 L -340.01886,55.02025 L -341.33886,57.14125 L -343.45886,57.21125 L -343.45886,57.21125 z M -289.56586,31.26025 L -288.89186,30.52825 C -290.05786,26.45625 -291.12186,22.42825 -292.10586,18.42425 C -293.08986,14.41925 -294.58786,10.83925 -296.60086,7.67025 C -298.87886,11.10325 -300.08986,14.92225 -300.21486,19.13325 C -300.35386,23.33225 -300.68586,27.66625 -301.22086,32.12925 L -298.00786,32.26625 L -289.56586,31.26025 L -289.56586,31.26025 z M -309.00186,55.05725 L -309.60786,54.45025 C -307.76686,48.32725 -306.32486,41.95825 -305.24886,35.32125 C -304.17386,28.68425 -303.30386,22.05025 -302.62986,15.43825 L -303.30386,13.42625 L -302.36586,5.45125 L -302.97186,2.77425 L -293.10986,-0.31475 C -292.40186,5.05125 -291.37286,10.31325 -290.03286,15.47325 C -288.69486,20.63325 -287.43586,25.70125 -286.28086,30.65625 C -285.46786,31.54725 -284.19886,31.81025 -282.45986,31.43325 C -280.70986,31.05425 -279.88586,31.75325 -279.97786,33.53725 L -282.51786,33.41225 L -284.59986,37.96525 L -278.57086,53.45525 L -283.05586,53.31825 L -285.67486,51.91025 L -285.67486,49.96525 L -285.27386,45.06925 L -287.74586,35.95225 L -301.35886,35.48325 L -302.43586,36.49125 L -302.69786,39.97925 L -302.97186,48.82325 L -305.17986,55.19625 L -309.00186,55.05725 L -309.00186,55.05725 z M -255.72086,57.47325 L -262.91486,52.71325 L -260.30386,51.81525 L -260.29286,47.63725 L -263.92286,6.97925 L -266.29786,7.04225 C -268.30486,7.40325 -270.35486,7.70725 -272.46186,7.93625 C -274.55586,8.16825 -276.53286,9.33125 -278.39186,11.42525 L -281.40286,3.17525 L -275.88386,3.22625 L -272.24886,3.88225 L -264.41586,2.10425 L -264.37986,-1.93575 L -267.82486,-9.02775 L -270.40686,-10.45075 L -270.50686,-12.52975 L -260.33686,-14.81275 L -260.22786,-12.65775 L -260.93486,-0.06475 L -260.52986,1.25025 L -255.24586,1.09025 L -252.15386,0.59625 L -252.18586,-0.66275 L -250.02886,-0.76975 L -244.40286,7.39725 L -249.40386,7.45525 C -250.11986,6.67525 -251.04486,6.28325 -252.18986,6.27925 C -253.33686,6.27625 -254.45786,6.27025 -255.55386,6.26225 L -259.75186,6.92625 L -259.69886,9.16325 C -258.50086,16.76625 -257.53186,24.83225 -256.77786,33.34025 C -256.02386,41.86025 -254.79986,49.90425 -253.10886,57.46325 L -255.72086,57.47325 L -255.72086,57.47325 z M -237.76386,58.84425 L -239.05086,57.55725 C -236.43686,54.89325 -235.22686,51.64925 -235.43386,47.82525 C -235.62686,44.01425 -235.72986,40.33325 -235.72986,36.81925 L -236.25586,28.29825 L -236.93986,28.29825 L -242.06386,28.98025 L -241.84386,25.05425 L -236.78486,25.13225 L -236.33486,23.76625 C -237.13186,19.49325 -237.85386,15.17925 -238.48386,10.82825 C -239.11686,6.49125 -241.16086,1.81725 -244.62486,-3.14975 L -239.79786,-3.14975 L -234.59786,-3.45975 L -232.11286,24.52425 L -217.18086,25.73525 L -217.92786,4.53525 L -218.15886,-2.55675 L -210.61686,-2.55675 L -210.61686,5.13925 L -211.51686,13.21125 L -211.67186,28.37425 L -212.64986,42.25125 C -211.19386,49.43325 -209.93386,54.23325 -208.87886,56.65525 L -215.97086,58.31525 L -217.18086,30.17625 L -232.03486,28.37325 L -232.03486,37.50025 L -229.69286,57.10425 C -230.74886,58.26425 -232.03486,58.84425 -233.54186,58.84425 C -235.04886,58.84425 -236.46186,58.84425 -237.76386,58.84425 L -237.76386,58.84425 z"
           stroke-miterlimit="10"
           sodipodi:nodetypes="cscccccccccccccccccscccccccccsccccccccsccsccccccccscccccccccccccccccccccccccccscccccccsccccccccscccccccsccccccccccccccccccccccscccccccccccccccccccscccsccccccccccccccccccccccccccccccccscc" />
      </g>
    </g>
  </g>
</svg>
